<svg width="20" height="14" viewBox="0 0 20 14" fill="none" xmlns="http://www.w3.org/2000/svg">
<path d="M16.7073 1.40623C16.702 1.39688 16.6931 1.38955 16.6823 1.38556C15.4338 0.869108 14.1163 0.500839 12.7627 0.289966C12.7504 0.287905 12.7377 0.289392 12.7264 0.294215C12.7151 0.299039 12.7057 0.306954 12.6997 0.316835C12.5203 0.610409 12.3574 0.911958 12.2117 1.22033C10.7526 1.02064 9.26849 1.02064 7.8094 1.22033C7.66274 0.911175 7.49727 0.60955 7.31375 0.316835C7.30745 0.307169 7.29807 0.299436 7.28683 0.294644C7.2756 0.289851 7.26302 0.288221 7.25074 0.289966C5.89701 0.500396 4.5794 0.868693 3.33106 1.38559C3.32037 1.38967 3.31136 1.39665 3.30525 1.40555C0.80882 4.76673 0.124953 8.04528 0.460435 11.2832C0.461379 11.2912 0.464083 11.2988 0.468387 11.3058C0.472691 11.3128 0.478507 11.3189 0.485488 11.3238C1.93914 12.2942 3.56506 13.0349 5.29388 13.5143C5.30605 13.5176 5.31905 13.5175 5.33113 13.5139C5.34321 13.5103 5.35379 13.5035 5.36144 13.4944C5.73275 13.0389 6.06176 12.5565 6.34512 12.0523C6.34902 12.0453 6.35124 12.0378 6.35165 12.03C6.35205 12.0222 6.35063 12.0145 6.34748 12.0073C6.34433 12.0001 6.33951 11.9935 6.33335 11.9881C6.3272 11.9827 6.31983 11.9785 6.31175 11.9758C5.79293 11.7969 5.29064 11.5811 4.80962 11.3306C4.80088 11.326 4.79354 11.3195 4.78825 11.3117C4.78296 11.3039 4.77988 11.295 4.77928 11.2859C4.77868 11.2768 4.78058 11.2677 4.78481 11.2594C4.78905 11.2511 4.79549 11.2438 4.80356 11.2383C4.90449 11.1701 5.00549 11.0992 5.10187 11.0276C5.11043 11.0212 5.12079 11.0171 5.13179 11.0158C5.14278 11.0145 5.15397 11.0159 5.16409 11.02C8.31551 12.3167 11.7273 12.3167 14.8415 11.02C14.8516 11.0157 14.8629 11.014 14.8741 11.0152C14.8852 11.0164 14.8958 11.0205 14.9045 11.0269C15.0009 11.0985 15.1018 11.1701 15.2035 11.2383C15.2116 11.2438 15.2181 11.251 15.2224 11.2592C15.2267 11.2675 15.2287 11.2766 15.2282 11.2857C15.2277 11.2949 15.2247 11.3037 15.2194 11.3116C15.2142 11.3194 15.2069 11.3259 15.1982 11.3306C14.7183 11.5832 14.2156 11.7988 13.6954 11.9752C13.6873 11.9779 13.68 11.9822 13.6738 11.9877C13.6677 11.9932 13.663 11.9998 13.6599 12.0071C13.6568 12.0144 13.6554 12.0222 13.6559 12.0299C13.6564 12.0377 13.6587 12.0453 13.6626 12.0523C13.9507 12.5537 14.2793 13.0354 14.6456 13.4936C14.653 13.503 14.6635 13.51 14.6756 13.5137C14.6878 13.5174 14.7009 13.5176 14.7131 13.5142C16.445 13.0365 18.0738 12.2957 19.5293 11.3238C19.5364 11.3192 19.5423 11.3132 19.5466 11.3063C19.5509 11.2994 19.5535 11.2918 19.5543 11.2839C19.956 7.5405 18.8819 4.28883 16.7073 1.40623ZM6.81576 9.31165C5.86695 9.31165 5.08517 8.52664 5.08517 7.56256C5.08517 6.59847 5.85179 5.8134 6.81576 5.8134C7.78726 5.8134 8.56149 6.60529 8.54632 7.5625C8.54632 8.52664 7.77967 9.31165 6.81576 9.31165ZM13.2143 9.31165C12.2655 9.31165 11.4837 8.52664 11.4837 7.56256C11.4837 6.59847 12.2503 5.8134 13.2143 5.8134C14.1859 5.8134 14.96 6.60529 14.9449 7.5625C14.9449 8.52664 14.1859 9.31165 13.2143 9.31165Z" fill="#CFBB85"/>
</svg>
