<svg width="326" height="72" viewBox="0 0 326 72" fill="none" xmlns="http://www.w3.org/2000/svg">
<path d="M90.9274 21.7132V49.0132H96.7774V40.0432H101.223C107.814 40.0432 113.001 37.9372 113.001 30.8782C113.001 23.8192 107.814 21.7132 101.223 21.7132H90.9274ZM107.034 30.8782C107.034 34.0762 104.499 34.8952 101.496 34.8952H96.7774V26.8612H101.496C104.499 26.8612 107.034 27.6412 107.034 30.8782ZM117.663 49.0132L119.691 43.9042H132.171L134.16 49.0132H140.205L129.09 21.7132H122.772L111.618 49.0132H117.663ZM125.307 29.2792C125.541 28.7332 125.736 28.1872 125.931 27.1342C126.126 28.1872 126.321 28.7332 126.516 29.2792L130.338 39.0682H121.524L125.307 29.2792ZM149.108 49.0132V34.9342C149.108 33.6862 149.069 32.3212 148.991 31.1902L161.705 49.0132H167.204V21.7132H161.354V35.7922C161.354 37.0402 161.393 38.4052 161.471 39.5362L148.757 21.7132H143.258V49.0132H149.108ZM173.041 21.7132V49.0132H183.259C192.97 49.0132 197.572 43.2802 197.572 35.3632C197.572 27.4462 192.97 21.7132 183.259 21.7132H173.041ZM191.605 35.3632C191.605 40.9792 188.68 43.8652 183.259 43.8652H178.891V26.8612H183.259C188.68 26.8612 191.605 29.7472 191.605 35.3632ZM200.465 35.3632C200.465 42.7732 205.301 49.5592 214.973 49.5592C224.645 49.5592 229.481 42.7732 229.481 35.3632C229.481 27.9532 224.645 21.1672 214.973 21.1672C205.301 21.1672 200.465 27.9532 200.465 35.3632ZM223.475 35.3632C223.475 40.1602 220.628 44.1382 214.973 44.1382C209.279 44.1382 206.432 40.1602 206.432 35.3632C206.432 30.5662 209.279 26.5882 214.973 26.5882C220.628 26.5882 223.475 30.5662 223.475 35.3632ZM239.676 49.0132V39.4582H243.966L251.337 49.0132H258.084L249.933 38.7172C253.248 37.6642 255.9 35.2852 255.9 30.6052C255.9 23.7022 250.362 21.7132 245.058 21.7132H233.826V49.0132H239.676ZM239.676 26.8612H245.331C247.788 26.8612 249.933 27.9142 249.933 30.7222C249.933 33.4912 247.788 34.5832 245.331 34.5832H239.676V26.8612ZM264.599 49.0132L266.627 43.9042H279.107L281.096 49.0132H287.141L276.026 21.7132H269.708L258.554 49.0132H264.599ZM272.243 29.2792C272.477 28.7332 272.672 28.1872 272.867 27.1342C273.062 28.1872 273.257 28.7332 273.452 29.2792L277.274 39.0682H268.46L272.243 29.2792ZM308.289 21.7132V32.7112H296.043V21.7132H290.193V49.0132H296.043V38.0152H308.289V49.0132H314.139V21.7132H308.289Z" fill="#CFBB85"/>
<path d="M30.4344 3.149L58.8673 19.5648V52.3962L30.4344 68.8119L2.00146 52.3962V19.5648L30.4344 3.149Z" stroke="#CFBB85" stroke-width="4"/>
<path d="M3.9992 18.4157L30.4345 3.14916L56.8698 18.4157L30.4345 33.6822L3.9992 18.4157Z" stroke="#CFBB85" stroke-width="4"/>
<path d="M15.7853 11.6093L30.4347 3.14915L45.0841 11.6093L30.4347 20.0693L15.7853 11.6093Z" stroke="#CFBB85" stroke-width="4"/>
</svg>
