<svg width="21" height="16" viewBox="0 0 21 16" fill="none" xmlns="http://www.w3.org/2000/svg">
<path d="M10.2716 4.92156C5.51761 4.88442 2.6888 2.15148 1.86865 0.789656C0.828757 3.53802 2.17814 5.49411 2.98282 6.12861L0.98652 5.75721C1.28364 7.65137 3.24589 9.30102 4.18988 9.88908L2.47213 9.98193C3.25208 11.5418 4.99459 12.5199 5.76834 12.8139C5.28861 13.0615 4.21773 13.5938 3.77205 13.7424C3.32636 13.891 1.6055 14.2995 0.800781 14.4852C3.58631 15.6923 6.27899 16.0172 9.20379 15.5994C12.1286 15.1816 15.4248 13.1389 16.6783 10.6319C17.6811 8.6263 17.9937 5.52508 18.0246 4.22517C18.3341 4.16327 19.046 3.99304 19.4174 3.80734C19.7888 3.62164 20.4388 2.86336 20.7173 2.50743L18.5817 2.32172L20.1602 0.371854L17.189 0.92896L15.8891 0.232573C15.0689 -0.0150296 13.0757 -0.231682 11.6643 0.88253C10.253 1.99674 10.1478 4.03947 10.2716 4.92156Z" fill="#CFBB85"/>
</svg>
