<svg width="16" height="14" viewBox="0 0 16 14" fill="none" xmlns="http://www.w3.org/2000/svg">
<path d="M11.9998 1.5H3.99986C3.11583 1.5 2.26795 1.85123 1.64284 2.47634C1.01773 3.10145 0.666504 3.94933 0.666504 4.83335V10.1668V10.1666C0.666504 11.0507 1.01773 11.8986 1.64284 12.5237C2.26795 13.1488 3.11583 13.5 3.99986 13.5H11.9998C12.8838 13.5 13.7317 13.1488 14.3568 12.5237C14.9819 11.8986 15.3332 11.0507 15.3332 10.1666V4.83353C15.3332 3.9495 14.9819 3.10162 14.3568 2.47651C13.7317 1.8514 12.8838 1.50017 11.9998 1.50017V1.5ZM11.9998 12.1665H3.99986C3.4694 12.1665 2.96069 11.9558 2.58569 11.5808C2.21058 11.2057 1.99987 10.697 1.99987 10.1665V4.83341C1.99987 4.30296 2.21058 3.79425 2.58569 3.41913C2.96069 3.04414 3.4694 2.83342 3.99986 2.83342H11.9998C12.5303 2.83342 13.039 3.04414 13.414 3.41913C13.7891 3.79425 13.9998 4.30296 13.9998 4.83341H12.6664C11.7138 4.83341 10.8334 5.34167 10.3571 6.16666C9.88074 6.99177 9.88074 8.00828 10.3571 8.83339C10.8334 9.65839 11.7138 10.1666 12.6664 10.1666H13.9998C13.9998 10.6971 13.7891 11.2058 13.414 11.5809C13.039 11.9559 12.5303 12.1666 11.9998 12.1666V12.1665ZM13.9998 8.83311L12.6664 8.83322C12.1901 8.83322 11.7499 8.57909 11.5118 8.16648C11.2736 7.75397 11.2736 7.24571 11.5118 6.83323C11.7499 6.42063 12.1901 6.16649 12.6664 6.16649H13.9998V8.83311Z" fill="white"/>
<path d="M6.66676 9.49414H4.00015C3.76198 9.49414 3.5419 9.62126 3.42281 9.82751C3.30372 10.0338 3.30372 10.2879 3.42281 10.4941C3.5419 10.7004 3.76198 10.8275 4.00015 10.8275H6.66676C6.90493 10.8275 7.12502 10.7004 7.24411 10.4941C7.36319 10.2879 7.36319 10.0338 7.24411 9.82751C7.12502 9.62126 6.90494 9.49414 6.66676 9.49414Z" fill="white"/>
</svg>
