<svg width="20" height="14" viewBox="0 0 20 14" fill="none" xmlns="http://www.w3.org/2000/svg">
<path d="M19.3473 2.23101C19.1292 1.39585 18.4865 0.738227 17.6703 0.515012C16.1909 0.109375 10.2595 0.109375 10.2595 0.109375C10.2595 0.109375 4.32796 0.109375 2.84859 0.515012C2.03259 0.738227 1.38978 1.39585 1.17168 2.23101C0.775391 3.74468 0.775391 6.90297 0.775391 6.90297C0.775391 6.90297 0.775391 10.0612 1.17168 11.5747C1.38978 12.4099 2.03259 13.0677 2.84859 13.2908C4.32796 13.6963 10.2595 13.6963 10.2595 13.6963C10.2595 13.6963 16.1909 13.6963 17.6703 13.2908C18.4865 13.0677 19.1292 12.4099 19.3473 11.5747C19.7435 10.0612 19.7435 6.90297 19.7435 6.90297C19.7435 6.90297 19.7435 3.74468 19.3473 2.23101ZM8.36254 9.81449V3.9914L13.2905 6.90297L8.36254 9.81449Z" fill="#CFBB85"/>
</svg>
