<svg width="17" height="10" viewBox="0 0 17 10" fill="none" xmlns="http://www.w3.org/2000/svg">
<path d="M8.14347 10C12.9221 10 16.2615 5.53507 16.3907 5.35057C16.5383 5.14761 16.5383 4.85238 16.3723 4.64943C13.8814 1.56826 11.1878 0 8.36492 0C3.58634 0 0.246867 4.46493 0.117716 4.64943C-0.0483059 4.87079 -0.0299019 5.16603 0.117716 5.36899C2.62693 8.43174 5.32065 9.99997 8.14352 9.99997L8.14347 10ZM8.36483 1.16239C10.7264 1.16239 13.0143 2.45387 15.1914 5.01847C14.3427 6.01484 11.6121 8.83764 8.14343 8.83764C5.78182 8.83764 3.494 7.54617 1.31689 4.98157C2.16553 3.98519 4.89621 1.16239 8.36483 1.16239ZM8.25415 7.82289C9.80393 7.82289 11.077 6.54979 11.077 5.00002C11.077 3.45024 9.80393 2.17715 8.25415 2.17715C6.70438 2.17715 5.43128 3.45024 5.43128 5.00002C5.43128 6.54979 6.70438 7.82289 8.25415 7.82289ZM8.25415 3.32106C9.17666 3.32106 9.93315 4.07754 9.93315 5.00005C9.93315 5.92256 9.17666 6.67904 8.25415 6.67904C7.33165 6.67904 6.57516 5.92256 6.57516 5.00005C6.57516 4.07754 7.33165 3.32106 8.25415 3.32106Z" fill="#00FF86"/>
</svg>
