<svg width="16" height="14" viewBox="0 0 16 14" fill="none" xmlns="http://www.w3.org/2000/svg">
<path d="M6.388 6.092V8.08H0.228V6.092H6.388ZM15.9231 9.144C15.9231 9.65733 15.7878 10.1333 15.5171 10.572C15.2558 11.0013 14.8638 11.356 14.3411 11.636C13.8278 11.9067 13.2164 12.056 12.5071 12.084V13.218H11.6111V12.07C10.6218 11.986 9.82376 11.692 9.21709 11.188C8.61043 10.6747 8.28843 9.97933 8.25109 9.102H10.7991C10.8551 9.662 11.1258 10.0213 11.6111 10.18V7.968C10.8831 7.78133 10.2998 7.59933 9.86109 7.422C9.43176 7.24467 9.05376 6.96 8.72709 6.568C8.40043 6.176 8.23709 5.63933 8.23709 4.958C8.23709 4.10867 8.54976 3.42733 9.17509 2.914C9.80976 2.40067 10.6218 2.11133 11.6111 2.046V0.911999H12.5071V2.046C13.4871 2.12067 14.2618 2.40533 14.8311 2.9C15.4004 3.39467 15.7178 4.08067 15.7831 4.958H13.2211C13.1651 4.454 12.9271 4.12733 12.5071 3.978V6.148C13.2818 6.36267 13.8791 6.554 14.2991 6.722C14.7191 6.89 15.0924 7.17 15.4191 7.562C15.7551 7.94467 15.9231 8.472 15.9231 9.144ZM10.7711 4.846C10.7711 5.07933 10.8411 5.27533 10.9811 5.434C11.1304 5.59267 11.3404 5.73267 11.6111 5.854V3.908C11.3498 3.95467 11.1444 4.05733 10.9951 4.216C10.8458 4.36533 10.7711 4.57533 10.7711 4.846ZM12.5071 10.222C12.7871 10.1753 13.0064 10.0633 13.1651 9.886C13.3331 9.70867 13.4171 9.48933 13.4171 9.228C13.4171 8.98533 13.3378 8.78933 13.1791 8.64C13.0298 8.48133 12.8058 8.346 12.5071 8.234V10.222Z" fill="#FF709D"/>
</svg>
