<svg width="17" height="14" viewBox="0 0 17 14" fill="none" xmlns="http://www.w3.org/2000/svg">
<path d="M7.466 8.178H5.03V10.67H2.762V8.178H0.326V6.036H2.762V3.53H5.03V6.036H7.466V8.178ZM16.593 9.144C16.593 9.65733 16.4577 10.1333 16.187 10.572C15.9257 11.0013 15.5337 11.356 15.011 11.636C14.4977 11.9067 13.8863 12.056 13.177 12.084V13.218H12.281V12.07C11.2917 11.986 10.4937 11.692 9.88702 11.188C9.28035 10.6747 8.95835 9.97933 8.92102 9.102H11.469C11.525 9.662 11.7957 10.0213 12.281 10.18V7.968C11.553 7.78133 10.9697 7.59933 10.531 7.422C10.1017 7.24467 9.72368 6.96 9.39702 6.568C9.07035 6.176 8.90702 5.63933 8.90702 4.958C8.90702 4.10867 9.21968 3.42733 9.84502 2.914C10.4797 2.40067 11.2917 2.11133 12.281 2.046V0.911999H13.177V2.046C14.157 2.12067 14.9317 2.40533 15.501 2.9C16.0703 3.39467 16.3877 4.08067 16.453 4.958H13.891C13.835 4.454 13.597 4.12733 13.177 3.978V6.148C13.9517 6.36267 14.549 6.554 14.969 6.722C15.389 6.89 15.7623 7.17 16.089 7.562C16.425 7.94467 16.593 8.472 16.593 9.144ZM11.441 4.846C11.441 5.07933 11.511 5.27533 11.651 5.434C11.8003 5.59267 12.0103 5.73267 12.281 5.854V3.908C12.0197 3.95467 11.8143 4.05733 11.665 4.216C11.5157 4.36533 11.441 4.57533 11.441 4.846ZM13.177 10.222C13.457 10.1753 13.6763 10.0633 13.835 9.886C14.003 9.70867 14.087 9.48933 14.087 9.228C14.087 8.98533 14.0077 8.78933 13.849 8.64C13.6997 8.48133 13.4757 8.346 13.177 8.234V10.222Z" fill="#00FF86"/>
</svg>
