<svg width="15" height="15" viewBox="0 0 15 15" fill="none" xmlns="http://www.w3.org/2000/svg">
<path d="M14.1481 6.36677L12.375 6.07615C12.2707 5.72107 12.1289 5.37888 11.952 5.05544L12.9867 3.58005C13.0699 3.46052 13.0559 3.2988 12.9528 3.19568L11.7867 2.02966C11.6824 1.92537 11.5184 1.9113 11.3989 1.99802L9.94573 3.04216C9.61995 2.86169 9.27424 2.71873 8.91682 2.61443L8.60745 0.848413C8.58167 0.705444 8.45745 0.599976 8.31213 0.599976H6.66213C6.51448 0.599976 6.38909 0.706616 6.36565 0.851929L6.07854 2.6074C5.71877 2.71169 5.37307 2.85349 5.04729 3.03162L3.59885 1.99685C3.47932 1.9113 3.31643 1.92419 3.21213 2.02849L2.04612 3.19451C1.94299 3.29763 1.92893 3.45935 2.01213 3.57888L3.03167 5.03669C2.8512 5.36599 2.70588 5.71404 2.60042 6.07498L0.851978 6.36677C0.706665 6.39021 0.601196 6.5156 0.601196 6.66209V8.31209C0.601196 8.4574 0.705493 8.58279 0.848462 8.6074L2.5969 8.91794C2.70237 9.27888 2.84651 9.62693 3.02932 9.95623L1.9969 11.4C1.91135 11.5195 1.92424 11.6824 2.02854 11.7867L3.19456 12.9539C3.29768 13.057 3.4594 13.0711 3.57893 12.9879L5.04026 11.9648C5.36838 12.1441 5.71409 12.2883 6.07385 12.3914L6.36682 14.1492C6.39026 14.2945 6.51565 14.4 6.66213 14.4H8.31213C8.45745 14.4 8.58167 14.2957 8.60745 14.1527L8.92034 12.3855C9.2801 12.2801 9.62463 12.1359 9.94924 11.9554L11.4211 12.9867C11.5407 13.0711 11.7024 13.057 11.8055 12.9539L12.9715 11.7867C13.0758 11.6824 13.0899 11.5183 13.0031 11.3988L11.9543 9.94216C12.1313 9.61755 12.2731 9.27537 12.3762 8.91912L14.1516 8.6074C14.2946 8.58279 14.3989 8.4574 14.3989 8.31209V6.66209C14.4 6.5156 14.2934 6.39021 14.1481 6.36677ZM7.50002 9.59998C6.33987 9.59998 5.40002 8.66013 5.40002 7.49998C5.40002 6.33982 6.33987 5.39998 7.50002 5.39998C8.66018 5.39998 9.60003 6.33982 9.60003 7.49998C9.60003 8.66013 8.66018 9.59998 7.50002 9.59998Z" fill="white"/>
</svg>
